<svg width="142" height="142" viewBox="0 0 142 142" xmlns="http://www.w3.org/2000/svg">
    <g fill="none" fill-rule="evenodd">
        <path d="M117.59 83.444C114.42 105.62 81.994 128.75 71 128.75c-10.994 0-43.42-23.13-46.59-45.306-2.189-15.306-5.945-39.022-.898-47.572 4.407-7.467 18.257-5.454 38.351-14.2 2.918-1.269 5.449-2.922 9.137-2.922 3.688 0 6.22 1.653 9.137 2.923 20.094 8.745 33.944 6.732 38.35 14.199 5.047 8.55 1.292 32.266-.897 47.572M71 0C31.788 0 0 31.788 0 71s31.788 71 71 71 71-31.788 71-71S110.212 0 71 0" fill="#000"/>
        <path d="M124.579 84.766c-3.646 25.2-40.936 51.484-53.579 51.484s-49.933-26.284-53.58-51.484c-2.515-17.393-6.835-44.343-1.031-54.06 5.068-8.484 20.996-6.197 44.104-16.134C63.848 13.129 66.758 11.25 71 11.25c4.241 0 7.152 1.879 10.507 3.322 23.108 9.937 39.036 7.65 44.104 16.134 5.804 9.717 1.484 36.667-1.032 54.06M71 8.75c-4.425 0-7.464 1.954-10.965 3.454-24.112 10.336-40.732 7.956-46.02 16.78-6.056 10.106-1.55 38.133 1.076 56.223C18.896 111.414 57.808 138.75 71 138.75s52.104-27.336 55.909-53.543c2.625-18.09 7.132-46.117 1.076-56.223-5.288-8.824-21.908-6.444-46.02-16.78-3.501-1.5-6.54-3.454-10.965-3.454" fill="#FF9527"/>
    </g>
</svg>
